<svg version="1.1" id="Layer_1" xmlns="http://www.w3.org/2000/svg" xmlns:xlink="http://www.w3.org/1999/xlink" x="0px" y="0px"
	 width="100%" viewBox="0 0 512 512" enable-background="new 0 0 512 512" xml:space="preserve">
<path fill="#FFFFFF" opacity="1.000000" stroke="none"
	d="
M513.000000,397.000000
	C513.000000,435.643860 513.000000,474.287720 513.000000,512.965820
	C342.456848,512.965820 171.913696,512.965820 1.000000,512.965820
	C1.000000,475.313263 1.000000,437.625275 1.375981,399.593323
	C1.835004,399.903870 1.860635,400.571716 2.009373,401.210938
	C7.910730,426.572693 34.458130,443.602264 60.155369,438.063599
	C75.437515,434.769745 87.110245,426.695343 94.503807,412.917297
	C99.381874,403.826935 101.288849,394.107880 100.082191,383.652252
	C98.166069,367.049225 90.123444,354.370605 75.899994,346.120605
	C63.113056,338.703766 49.522587,336.804230 34.922169,341.826935
	C18.714275,347.402588 8.437897,358.130646 2.962007,374.021088
	C2.586733,375.110107 1.666695,376.011414 1.000002,377.000000
	C1.000000,341.312439 1.000000,305.624878 1.361737,269.576416
	C4.245621,276.554321 7.607256,283.275574 12.625755,289.437103
	C21.369598,300.172516 32.887356,305.594635 45.952133,306.780914
	C64.319992,308.448669 79.705254,301.514374 90.863152,286.545319
	C100.394051,273.759064 102.943680,259.186829 98.860817,243.999405
	C91.422165,216.329086 63.966984,202.732498 40.483875,208.055176
	C26.374945,211.253113 14.832481,218.342300 7.847311,231.561981
	C5.498883,236.006454 3.278764,240.518723 0.999999,245.000000
	C1.000000,208.645767 1.000000,172.291550 1.373639,135.590485
	C2.379476,137.561920 2.800650,139.963486 3.677758,142.185043
	C9.847609,157.812119 20.770725,168.379562 37.095387,172.966797
	C56.178299,178.329147 72.944962,173.258743 86.508286,159.646423
	C96.959969,149.156952 101.546257,135.862793 100.154205,120.520073
	C99.079269,108.672577 94.738533,98.575264 86.638191,90.275269
	C73.490822,76.803841 57.138294,72.111946 38.978142,76.227715
	C28.054346,78.703445 17.900282,83.962189 11.693239,93.976646
	C7.565980,100.635574 4.526416,107.968666 1.000000,115.000000
	C1.000000,77.022400 1.000000,39.044807 1.000000,1.033604
	C171.543640,1.033604 342.087280,1.033604 513.000000,1.033604
	C513.000000,39.353439 513.000000,77.708061 512.632935,116.417007
	C508.409637,100.377350 494.971710,91.105621 477.878632,91.079254
	C374.606995,90.919952 271.334930,90.953880 168.063385,91.135368
	C162.868027,91.144501 157.260162,92.210320 152.560760,94.354355
	C138.536270,100.752823 132.334717,112.078720 132.905472,127.602890
	C133.473083,143.041687 148.396271,158.031662 163.543213,158.024918
	C269.313568,157.977798 375.083954,157.987228 480.854340,158.019318
	C491.689148,158.022598 500.338684,153.807098 506.459747,144.929230
	C509.020477,141.215271 510.842255,136.991806 513.000000,133.000000
	C513.000000,171.354233 513.000000,209.708450 512.632935,248.417007
	C507.501038,230.149582 493.825531,223.171967 477.331360,223.171448
	C372.084656,223.168121 266.837616,223.595428 161.591949,224.130188
	C152.818832,224.174759 145.564377,228.896347 140.041245,235.782578
	C134.278214,242.967850 132.265976,251.241333 132.953445,260.387726
	C133.652222,269.684265 137.965515,276.986847 144.768143,282.950317
	C152.296631,289.550140 161.706665,290.898529 171.107635,290.913177
	C263.438477,291.057068 355.769653,291.035950 448.100677,290.955719
	C460.014801,290.945374 471.934204,290.466705 483.840149,289.951050
	C491.190857,289.632629 498.048096,286.998779 502.758972,281.448456
	C506.893341,276.577332 509.640259,270.528595 513.000000,265.000000
	C513.000000,303.354218 513.000000,341.708466 512.633057,380.417114
	C509.751282,366.711517 494.093384,355.784637 480.584930,355.825500
	C375.981415,356.141907 271.376526,356.030334 166.772171,355.929230
	C160.066055,355.922729 154.150803,357.284973 148.394287,360.879517
	C134.700409,369.430420 130.338211,383.268127 133.525040,396.560394
	C137.989563,415.181824 150.673126,422.773682 167.833084,422.830322
	C271.270416,423.171722 374.709503,423.048157 478.147827,422.925751
	C488.522980,422.913483 498.200684,419.789246 504.911865,411.346588
	C508.285278,407.102844 510.345764,401.815430 513.000000,397.000000
z"/>
<path fill="#000000" opacity="1.000000" stroke="none"
	d="
M513.000000,264.533142
	C509.640259,270.528595 506.893341,276.577332 502.758972,281.448456
	C498.048096,286.998779 491.190857,289.632629 483.840149,289.951050
	C471.934204,290.466705 460.014801,290.945374 448.100677,290.955719
	C355.769653,291.035950 263.438477,291.057068 171.107635,290.913177
	C161.706665,290.898529 152.296631,289.550140 144.768143,282.950317
	C137.965515,276.986847 133.652222,269.684265 132.953445,260.387726
	C132.265976,251.241333 134.278214,242.967850 140.041245,235.782578
	C145.564377,228.896347 152.818832,224.174759 161.591949,224.130188
	C266.837616,223.595428 372.084656,223.168121 477.331360,223.171448
	C493.825531,223.171967 507.501038,230.149582 512.632935,248.885666
	C513.000000,254.022095 513.000000,259.044189 513.000000,264.533142
z"/>
<path fill="#000000" opacity="1.000000" stroke="none"
	d="
M513.000000,132.533142
	C510.842255,136.991806 509.020477,141.215271 506.459747,144.929230
	C500.338684,153.807098 491.689148,158.022598 480.854340,158.019318
	C375.083954,157.987228 269.313568,157.977798 163.543213,158.024918
	C148.396271,158.031662 133.473083,143.041687 132.905472,127.602890
	C132.334717,112.078720 138.536270,100.752823 152.560760,94.354355
	C157.260162,92.210320 162.868027,91.144501 168.063385,91.135368
	C271.334930,90.953880 374.606995,90.919952 477.878632,91.079254
	C494.971710,91.105621 508.409637,100.377350 512.632935,116.885666
	C513.000000,122.022095 513.000000,127.044189 513.000000,132.533142
z"/>
<path fill="#000000" opacity="1.000000" stroke="none"
	d="
M513.000000,396.533142
	C510.345764,401.815430 508.285278,407.102844 504.911865,411.346588
	C498.200684,419.789246 488.522980,422.913483 478.147827,422.925751
	C374.709503,423.048157 271.270416,423.171722 167.833084,422.830322
	C150.673126,422.773682 137.989563,415.181824 133.525040,396.560394
	C130.338211,383.268127 134.700409,369.430420 148.394287,360.879517
	C154.150803,357.284973 160.066055,355.922729 166.772171,355.929230
	C271.376526,356.030334 375.981415,356.141907 480.584930,355.825500
	C494.093384,355.784637 509.751282,366.711517 512.633057,380.885803
	C513.000000,386.022095 513.000000,391.044189 513.000000,396.533142
z"/>
<path fill="#000000" opacity="1.000000" stroke="none"
	d="
M0.999999,245.468628
	C3.278764,240.518723 5.498883,236.006454 7.847311,231.561981
	C14.832481,218.342300 26.374945,211.253113 40.483875,208.055176
	C63.966984,202.732498 91.422165,216.329086 98.860817,243.999405
	C102.943680,259.186829 100.394051,273.759064 90.863152,286.545319
	C79.705254,301.514374 64.319992,308.448669 45.952133,306.780914
	C32.887356,305.594635 21.369598,300.172516 12.625755,289.437103
	C7.607256,283.275574 4.245621,276.554321 1.361737,269.107727
	C1.000000,261.312408 1.000000,253.624832 0.999999,245.468628
z"/>
<path fill="#000000" opacity="1.000000" stroke="none"
	d="
M1.000002,377.468567
	C1.666695,376.011414 2.586733,375.110107 2.962007,374.021088
	C8.437897,358.130646 18.714275,347.402588 34.922169,341.826935
	C49.522587,336.804230 63.113056,338.703766 75.899994,346.120605
	C90.123444,354.370605 98.166069,367.049225 100.082191,383.652252
	C101.288849,394.107880 99.381874,403.826935 94.503807,412.917297
	C87.110245,426.695343 75.437515,434.769745 60.155369,438.063599
	C34.458130,443.602264 7.910730,426.572693 2.009373,401.210938
	C1.860635,400.571716 1.835004,399.903870 1.375981,399.124695
	C1.000000,391.979034 1.000000,384.958099 1.000002,377.468567
z"/>
<path fill="#000000" opacity="1.000000" stroke="none"
	d="
M1.000000,115.468399
	C4.526416,107.968666 7.565980,100.635574 11.693239,93.976646
	C17.900282,83.962189 28.054346,78.703445 38.978142,76.227715
	C57.138294,72.111946 73.490822,76.803841 86.638191,90.275269
	C94.738533,98.575264 99.079269,108.672577 100.154205,120.520073
	C101.546257,135.862793 96.959969,149.156952 86.508286,159.646423
	C72.944962,173.258743 56.178299,178.329147 37.095387,172.966797
	C20.770725,168.379562 9.847609,157.812119 3.677758,142.185043
	C2.800650,139.963486 2.379476,137.561920 1.373639,135.121826
	C1.000000,128.645599 1.000000,122.291206 1.000000,115.468399
z"/>
</svg>
